<svg xmlns="http://www.w3.org/2000/svg" width="183.5" height="115.5" viewBox="-213.5 -51.5 183.5 115.5"><path fill="#FFD878" d="M-63.013 33.916c0 14.715-14.714 25.75-14.714 25.75s-14.715-11.035-14.715-25.75h29.429z"/><path fill="#E57C5C" d="M-77.727 52.267c-2.803-2.816-6.617-9.239-8.32-14.671h16.632c-1.694 5.439-5.51 11.862-8.312 14.671z"/><path fill="#AAA" d="M-59.334 19.202v11.036s-3.679 7.357-18.393 7.357c-14.715 0-18.394-7.357-18.394-7.357V19.202"/><path fill="#BFBFBF" d="M-59.334-13.905v33.107s-3.679 7.357-18.393 7.357c-14.715 0-18.394-7.357-18.394-7.357v-33.107c0-11.036 14.715-29.429 18.394-29.429 3.679 0 18.393 18.394 18.393 29.429z"/><path fill="#EF6565" d="M-66.691-32.298s-3.679 3.679-11.035 3.679c-7.357 0-11.036-3.679-11.036-3.679s5.978-11.036 11.036-11.036c5.057.001 11.035 11.036 11.035 11.036z"/><circle fill="#ACF0F2" cx="-77.727" cy="-6.548" r="9.197"/><path fill="#EF6565" d="M-96.12 22.881l-14.714 14.715V4.488l15.418-23.058M-59.334 22.881l14.714 14.715V4.488l-15.39-22.955"/><path fill="none" stroke="#4D5152" stroke-miterlimit="10" d="M-59.334-13.905v33.107s-3.679 7.357-18.393 7.357c-14.715 0-18.394-7.357-18.394-7.357v-33.107c0-11.036 14.715-29.429 18.394-29.429 3.679 0 18.393 18.394 18.393 29.429z"/><path fill="none" stroke="#4D5152" stroke-miterlimit="10" d="M-59.334 19.202v11.036s-3.679 7.357-18.393 7.357c-14.715 0-18.394-7.357-18.394-7.357V19.202M-88.763-32.298s3.679 3.679 11.036 3.679c7.356 0 11.035-3.679 11.035-3.679"/><circle fill="none" stroke="#4D5152" stroke-miterlimit="10" cx="-77.727" cy="-6.548" r="9.197"/><path fill="none" stroke="#4D5152" stroke-miterlimit="10" d="M-96.12 22.881l-14.714 14.715V4.488l15.418-23.058M-59.334 22.881l14.714 14.715V4.488l-15.39-22.955M-63.013 33.916c0 14.715-14.714 25.75-14.714 25.75s-14.715-11.035-14.715-25.75"/><path d="M-201.371-34.457h6.578l4.371 16.011.952 7.141h.389l1.039-7.184c1.688-5.582 2.164-6.231 3.895-11.728h5.149l3.722 11.814 1.255 7.399h.389l.822-7.399 4.458-16.055h6.534l-8.828 30.638h-6.231l-3.938-11.813-.692-3.679h-.346s-.779 3.765-.822 3.722l-3.592 11.771h-6.231l-8.873-30.638zM-152.597-22.254h13.199v6.188h-13.199v6.058h14.367v6.188h-20.771v-30.682h20.771v6.231h-14.367v6.017zM-114.945-20.134c3.808 1.861 4.543 5.453 4.111 8.525-.563 4.11-3.548 7.789-10.602 7.789h-12.333v-30.682h12.117c5.279 0 9.606 3.073 9.606 9.001 0 1.732-.822 4.199-2.899 5.367zm-6.708-2.337c4.327 0 4.847-5.799 0-5.799h-5.755v5.799h5.755zm0 12.463c5.972 0 6.058-7.01 0-7.01h-5.755v7.01h5.755zM-172.167 19.748c.368 2.099 2.099 2.945 3.719 2.945s3.167-.994 3.167-2.503V8.592h-5.928V2.627h12.445V20.19c0 5.67-4.971 8.873-9.941 8.873-4.492 0-8.947-2.504-9.684-8.026l6.222-1.289zM-148.161 12.863h10.567v5.707h-10.567v3.902h11.488v6.223h-18.152V2.627h18.152v6.186h-11.488v4.05zM-121.135 8.85v19.846h-6.665V8.85h-6.922V2.59h20.508v6.26h-6.921z"/><g fill="#33A2E5"><path d="M-202.871-34.957h6.578l4.371 16.011.952 7.141h.389l1.039-7.184c1.688-5.582 2.164-6.231 3.895-11.728h5.149l3.722 11.814 1.255 7.399h.389l.822-7.399 4.458-16.055h6.534l-8.828 30.638h-6.231l-3.938-11.813-.692-3.679h-.346s-.779 3.765-.822 3.722l-3.592 11.771H-194l-8.871-30.638zM-154.097-22.754h13.199v6.188h-13.199v6.058h14.367v6.188h-20.771v-30.682h20.771v6.231h-14.367v6.017zM-116.445-20.634c3.808 1.861 4.543 5.453 4.111 8.525-.563 4.11-3.548 7.789-10.602 7.789h-12.333v-30.682h12.117c5.279 0 9.606 3.073 9.606 9.001 0 1.732-.822 4.199-2.899 5.367zm-6.708-2.337c4.327 0 4.847-5.799 0-5.799h-5.755v5.799h5.755zm0 12.463c5.972 0 6.058-7.01 0-7.01h-5.755v7.01h5.755z"/></g><g fill="#F9C44E"><path d="M-173.167 19.748c.368 2.099 2.099 2.945 3.719 2.945s3.167-.994 3.167-2.503V8.592h-5.928V2.627h12.445V20.19c0 5.67-4.971 8.873-9.941 8.873-4.492 0-8.947-2.504-9.684-8.026l6.222-1.289zM-149.161 12.863h10.567v5.707h-10.567v3.902h11.488v6.223h-18.152V2.627h18.152v6.186h-11.488v4.05zM-122.135 8.85v19.846h-6.665V8.85h-6.922V2.59h20.508v6.26h-6.921z"/></g></svg>