<svg xmlns="http://www.w3.org/2000/svg" width="48" height="55" viewBox="0 0 48 55"><path fill-rule="evenodd" clip-rule="evenodd" d="M47.773 36.019l-4.057-11.994a6.725 6.725 0 0 0 .908-6.059 6.73 6.73 0 0 0-4.402-4.271L36.16 1.677C35.687.275 34.781.066 34.281.066c-1.253 0-1.933 1.238-2.317 2.392-2.927 11.66-16.119 15.412-16.339 15.476-1.195.405-1.694 1.138-1.904 1.685-.356.93-.065 1.779.103 2.146l4.056 11.99c.424 1.25 1.45 1.993 2.753 1.993.534 0 .946-.126 1.059-.163 3.33-1.127 6.589-1.7 9.689-1.7 8.264 0 12.832 4.101 12.873 4.141l.211.162c.361.229 1.068.617 1.768.617.606 0 1.137-.269 1.462-.75.563-.843.178-1.798.078-2.036zM31.377 30.92c-3.418 0-7.001.623-10.686 1.886L16.607 20.74c1.416-.408 13.62-4.23 17.618-15.519l3.736 11.039 2.4 7.1 3.687 10.896c-2.394-1.443-6.671-3.336-12.671-3.336zM16.25 40.723s.791-2.556.401-3.729l-4.647-14.035s-.282-1.755-2.142-1.126l-5.765 1.952S-.39 25.524 1.1 29.93l2.054 6.063s1.626 5.12 6.09 3.607c0 0 1.755-.523 2.546 2.308l3.703 10.963s.317 1.856 2.082 1.257c0 0 5.424-.941 1.086-5.341 1.259-2.643-2.411-4.425-2.411-8.064zm17.315-28.825a1.182 1.182 0 0 0-1.31 1.015c-.598 4.703-7.575 6.679-7.648 6.699a1.174 1.174 0 1 0 .624 2.263c.348-.097 8.56-2.404 9.355-8.668a1.178 1.178 0 0 0-1.021-1.309z"/></svg>