<svg xmlns="http://www.w3.org/2000/svg" width="34" height="55" viewBox="0 0 34 55"><path fill-rule="evenodd" clip-rule="evenodd" d="M29.293-.004H4.397C1.973-.004.003 1.942.003 4.337v45.572c0 2.395 1.969 4.341 4.394 4.341h24.896c2.424 0 4.393-1.946 4.393-4.341V4.337c0-2.395-1.969-4.341-4.393-4.341zM16.845 52.622c-1.311 0-2.38-1.056-2.38-2.352 0-1.294 1.069-2.351 2.38-2.351 1.31 0 2.38 1.057 2.38 2.351 0 1.296-1.07 2.352-2.38 2.352zm13.178-7.053a.729.729 0 0 1-.73.723H4.397a.73.73 0 0 1-.732-.723V8.678c0-.397.33-.724.732-.724h24.896c.402 0 .73.326.73.724v36.891zm-15.559-7.957a.91.91 0 0 0-.915.904.9.9 0 0 0 .146.489l-1.506 1.912a.886.886 0 0 0-.837.134L9.49 39.823a.91.91 0 0 0 .031-.223c0-.499-.411-.904-.916-.904s-.916.405-.916.904c0 .161.047.311.122.441l-1.428 1.614a.911.911 0 0 0-1.256.838c0 .498.41.904.915.904a.912.912 0 0 0 .917-.904.88.88 0 0 0-.123-.443l1.428-1.612a.916.916 0 0 0 .89-.119l1.863 1.227a.825.825 0 0 0-.032.224c0 .498.411.905.915.905a.912.912 0 0 0 .916-.905.893.893 0 0 0-.147-.489l1.505-1.912a.911.911 0 0 0 1.205-.853.91.91 0 0 0-.915-.904zm-4.209-14.829v-3.255c-2.022 0-3.661 1.62-3.661 3.616h3.295a.363.363 0 0 0 .366-.361zm3.612.965c.328-2.009-1.02-3.774-2.88-4.146v3.543a.729.729 0 0 1-.732.724H6.668c.377 1.837 2.164 3.169 4.196 2.846 1.519-.244 2.757-1.468 3.003-2.967zm-2.88-10.73H8.79v4.34h2.197v-4.34zm-2.929 2.17H5.862v2.17h2.196v-2.17zm5.858-5.064h-2.197v7.233h2.197v-7.233zm3.654 5.786h9.525c.4 0 .726-.32.726-.716v-.014a.72.72 0 0 0-.726-.716H17.57a.72.72 0 0 0-.726.716v.014a.721.721 0 0 0 .726.716zM10.48 36.2v-.77c1.032-.134 1.634-.861 1.634-1.716 0-1.874-2.854-1.698-2.854-2.694 0-.417.397-.71.906-.71.754 0 1.33.519 1.33.519l.474-.878s-.509-.527-1.49-.611v-.77h-.729v.786c-.94.151-1.591.82-1.591 1.682 0 1.798 2.862 1.698 2.862 2.701 0 .486-.416.72-.872.72-.848 0-1.499-.627-1.499-.627l-.594.812s.601.662 1.693.787v.77h.73zm16.623-7.268h-9.526a.722.722 0 0 0-.725.717v.014c0 .396.325.717.725.717h9.526c.4 0 .726-.321.726-.717v-.014a.723.723 0 0 0-.726-.717zm0-5.064h-9.526a.721.721 0 0 0-.725.716v.014a.72.72 0 0 0 .725.716h9.526c.4 0 .726-.32.726-.716v-.014a.722.722 0 0 0-.726-.716zM17.57 12.294h9.525c.4 0 .726-.32.726-.716v-.015a.72.72 0 0 0-.726-.716H17.57a.72.72 0 0 0-.726.716v.015a.721.721 0 0 0 .726.716zm9.533 28.935h-9.526a.722.722 0 0 0-.725.717v.014c0 .396.325.718.725.718h9.526c.4 0 .726-.321.726-.718v-.014a.723.723 0 0 0-.726-.717zm0-3.617h-9.526a.722.722 0 0 0-.725.716v.015a.72.72 0 0 0 .725.716h9.526a.72.72 0 0 0 .726-.716v-.015a.723.723 0 0 0-.726-.716zm0-5.063h-9.526a.721.721 0 0 0-.725.716v.015c0 .395.325.716.725.716h9.526c.4 0 .726-.321.726-.716v-.015a.722.722 0 0 0-.726-.716zm0-12.298h-9.526a.721.721 0 0 0-.725.717v.014c0 .396.325.717.725.717h9.526c.4 0 .726-.32.726-.717v-.014a.723.723 0 0 0-.726-.717z"/></svg>