<svg xmlns="http://www.w3.org/2000/svg" width="54" height="54" viewBox="0 0 54 54"><path fill-rule="evenodd" clip-rule="evenodd" fill="#222" d="M38.813 50.625h-3.375a3.378 3.378 0 0 1-3.375-3.375v-5.063H21.938v5.063a3.377 3.377 0 0 1-3.375 3.375h-3.375a1.687 1.687 0 1 0 0 3.375h23.625a1.687 1.687 0 1 0 0-3.375zM51.047-.001H2.953C1.323-.001 0 1.417 0 3.164v32.483c0 1.747 1.323 3.165 2.953 3.165h48.094c1.63 0 2.953-1.418 2.953-3.165V3.164c0-1.747-1.323-3.165-2.953-3.165zm-.422 35.439H3.375V3.374h47.25v32.064z"/></svg>