<svg xmlns="http://www.w3.org/2000/svg" width="40" height="40" viewBox="0 0 40 40"><path fill-rule="evenodd" clip-rule="evenodd" fill="#FCAC45" d="M20.002-.003C8.97-.003-.003 8.972-.003 20.003c0 11.029 8.974 20.003 20.005 20.003 11.03 0 20.003-8.973 20.003-20.003C40.006 8.971 31.033-.003 20.002-.003zm0 38.653c-10.283 0-18.649-8.366-18.649-18.647C1.354 9.72 9.72 1.354 20.002 1.354c10.281 0 18.648 8.366 18.648 18.649 0 10.281-8.367 18.647-18.648 18.647zm8.424-19.327h-7.745v-7.745a.679.679 0 1 0-1.357 0v7.745h-7.746a.679.679 0 0 0 0 1.357h7.746v7.745a.679.679 0 0 0 1.357 0V20.68h7.745a.678.678 0 1 0 0-1.357z"/></svg>