<svg xmlns="http://www.w3.org/2000/svg" width="211" height="32" viewBox="0 0 211 32"><path fill-rule="evenodd" clip-rule="evenodd" fill="#B2B2B2" d="M15.5 1C6.939 1 0 7.939 0 16.5S6.939 32 15.5 32 31 25.061 31 16.5 24.061 1 15.5 1zm0 28.578c-7.223 0-13.078-5.855-13.078-13.078 0-7.224 5.855-13.078 13.078-13.078S28.578 9.276 28.578 16.5c0 7.223-5.855 13.078-13.078 13.078zm.982-17.419c0-.604.625-.743.916-.743h1.742V8.76l-1.997-.01c-2.724 0-3.345 1.979-3.345 3.249v2.128h-1.976v2.736h1.976v7.387h2.684v-7.387h2.28l.417-2.736h-2.696v-1.968zM60.5.5c-8.699 0-15.75 7.051-15.75 15.75C44.75 24.948 51.801 32 60.5 32s15.75-7.052 15.75-15.75C76.25 7.551 69.199.5 60.5.5zm0 29.039c-7.339 0-13.289-5.949-13.289-13.289S53.161 2.961 60.5 2.961 73.789 8.91 73.789 16.25 67.839 29.539 60.5 29.539zm7.426-19.873c-.457.314-1.508.772-2.027.772l.001.003c-.592-.667-1.425-1.082-2.35-1.082-1.794 0-3.249 1.566-3.249 3.499 0 .268.029.528.083.779h-.001c-2.434-.067-5.279-1.381-6.883-3.63-.984 1.837-.132 3.879.985 4.623-.381.032-1.087-.047-1.418-.394-.023 1.218.521 2.833 2.506 3.418-.383.222-1.058.158-1.353.109.104 1.03 1.442 2.377 2.904 2.377-.521.647-2.3 1.827-4.5 1.451 1.495.98 3.238 1.548 5.083 1.548 5.242 0 9.313-4.575 9.094-10.219l-.002-.02.002-.044-.002-.053a5.857 5.857 0 0 0 1.576-1.79c-.266.157-1.061.472-1.804.551.476-.274 1.181-1.179 1.355-1.898zM105.417.667C96.902.667 90 7.568 90 16.083S96.902 31.5 105.417 31.5s15.417-6.902 15.417-15.417S113.932.667 105.417.667zm0 28.424c-7.184 0-13.008-5.823-13.008-13.008 0-7.184 5.824-13.008 13.008-13.008s13.007 5.824 13.007 13.008c0 7.185-5.823 13.008-13.007 13.008zm1.328-20.237c.524-.295.755-.485.755-.485h-5.016c-1.005 0-3.796 1.142-3.796 3.806 0 2.665 2.895 3.237 3.945 3.194-.589.719-.085 1.376.231 1.712.314.338.25.444-.126.444-.378 0-5.036.05-5.036 3.385s6.189 3.576 8.224 1.778c2.035-1.797 1.594-4.275.021-5.396s-2.161-1.649-1.154-2.537c1.007-.889 1.805-1.607 1.805-3.258s-1.364-2.494-1.364-2.494.986.146 1.511-.149zm-.777 11.886c0 1.438-1.221 2.136-3.295 2.136-2.076 0-3.188-1.036-3.188-2.58 0-1.545 1.511-2.307 4.343-2.307.768.592 2.14 1.312 2.14 2.751zm-3-6.028c-2.498 0-3.63-5.836-.693-5.836 2.287-.086 4.007 5.836.693 5.836zm8.274-6.306h-.98v1.898h-1.919v.984h1.919v1.901h.98v-1.901h1.889v-.984h-1.889V8.406zM150.25 1C141.827 1 135 7.827 135 16.25s6.827 15.25 15.25 15.25 15.25-6.827 15.25-15.25S158.673 1 150.25 1zm0 28.117c-7.106 0-12.867-5.761-12.867-12.867s5.761-12.867 12.867-12.867 12.867 5.761 12.867 12.867-5.761 12.867-12.867 12.867zm-7.619-5.249h2.859V12.431h-2.859v11.437zm11.437-11.437c-2.448.041-3.652 1.825-3.813 1.906v-1.906h-2.859v11.438h2.859v-6.672c0-.245.604-2.204 2.859-1.906 1.211.079 1.865 1.682 1.906 1.906v6.672l2.848.014v-7.919c-.098-1.144-.671-3.492-3.8-3.533zm-10.007-3.813a1.43 1.43 0 1 0 0 2.86 1.43 1.43 0 0 0 0-2.86zM195.125 1.375c-8.285 0-15 6.715-15 15 0 8.284 6.715 15 15 15s15-6.716 15-15c0-8.285-6.715-15-15-15zm0 27.656c-6.99 0-12.656-5.666-12.656-12.656s5.666-12.656 12.656-12.656 12.656 5.666 12.656 12.656-5.666 12.656-12.656 12.656zm0-20.156a7.5 7.5 0 0 0-7.5 7.5c0 4.142 3.357 7.5 7.5 7.5s7.5-3.358 7.5-7.5a7.5 7.5 0 0 0-7.5-7.5zm0 1.648c1.381 0 2.646.482 3.649 1.286-.768.918-1.78 1.583-2.874 2.053-.77-1.486-1.512-2.55-2.02-3.199.403-.088.817-.14 1.245-.14zm-2.586.61c.407.479 1.221 1.535 2.089 3.184-1.767.525-3.544.648-4.62.648h-.092c-.182 0-.338-.004-.469-.007a5.879 5.879 0 0 1 3.092-3.825zm-3.266 5.242l.003-.085c.167.007.382.013.64.013 1.177-.009 3.231-.106 5.312-.764.113.248.226.506.337.775a9.255 9.255 0 0 0-3.294 1.942 9.97 9.97 0 0 0-1.613 1.882 5.796 5.796 0 0 1-1.385-3.763zm5.852 5.851a5.81 5.81 0 0 1-3.477-1.153 8.52 8.52 0 0 1 1.357-1.67 7.953 7.953 0 0 1 3.041-1.841 28.914 28.914 0 0 1 1.155 4.282 5.82 5.82 0 0 1-2.076.382zm3.312-1.038a30.433 30.433 0 0 0-1.079-3.932 8.34 8.34 0 0 1 1.199-.086h.018c.697 0 1.463.087 2.296.276a5.86 5.86 0 0 1-2.434 3.742zm.139-5.355h-.006c-.6 0-1.164.054-1.695.148-.129-.317-.26-.621-.392-.912 1.183-.519 2.318-1.256 3.236-2.306a5.813 5.813 0 0 1 1.248 3.337 11.598 11.598 0 0 0-2.391-.267z"/></svg>